<svg xmlns="http://www.w3.org/2000/svg" viewBox="0 0 958.59 450.57"><defs><style>.cls-1{fill:#468189;fill-rule:evenodd;}.cls-2{isolation:isolate;}.cls-3{fill:#fff;}</style></defs><title>logov1lt</title><g id="Layer_2" data-name="Layer 2"><path id="Path" class="cls-1" d="M772.7,428.49c141.94-106,148.76,64.76,337.58,37.18C896.56,570.8,859.89,393.64,772.7,428.49Z" transform="translate(-449.13 -393.41)"/><path class="cls-1" d="M453.89,555C598.5,452.66,601,623.57,790.41,600.85,574.06,700.46,550.23,540.72,453.89,555Z" transform="translate(-449.13 -393.41)"/><path class="cls-1" d="M449.13,458.49C610.67,224.91,847,725,1203,470.47,882.88,829.82,583.74,374.64,449.13,458.49Z" transform="translate(-449.13 -393.41)"/><g class="cls-2"><path class="cls-3" d="M732.52,528.11a16,16,0,0,1-2.32,8.65,18.13,18.13,0,0,1-6.26,6,29.53,29.53,0,0,1-8.25,3.18A45.64,45.64,0,0,1,705.38,547q-3.07,0-6.36-.19l-3.81-.24-.39-6.9c.45.07,1.7.19,3.74.36s4.46.26,7.23.26a41.36,41.36,0,0,0,6.57-.67,23,23,0,0,0,6.17-1.72,12.06,12.06,0,0,0,4.34-3.35,7.93,7.93,0,0,0,1.51-5,9.42,9.42,0,0,0-1.51-5.43,15.28,15.28,0,0,0-5-4.29c-1.5-.89-3.44-1.9-5.84-3a60.42,60.42,0,0,1-6.47-3.45,19.8,19.8,0,0,1-7-6.49,15.13,15.13,0,0,1-2.08-7.83,14.78,14.78,0,0,1,1.9-7.64,18.93,18.93,0,0,1,4.91-5.53,21.42,21.42,0,0,1,7.51-3.45,39.13,39.13,0,0,1,9.86-1.15q3,0,6,.17c2,.11,3.19.18,3.47.21l.68,6.95-3.5-.34q-3.08-.29-7.57-.28a26.79,26.79,0,0,0-5.53.6,17,17,0,0,0-5,1.84,9.91,9.91,0,0,0-3.26,3.07,8,8,0,0,0-1.34,4.59,8.14,8.14,0,0,0,1.42,4.53,15.81,15.81,0,0,0,5.29,4.48,58.76,58.76,0,0,0,5.2,2.75c2.15,1,4.27,2.17,6.34,3.38a21.5,21.5,0,0,1,7.21,6.49A14.85,14.85,0,0,1,732.52,528.11Z" transform="translate(-449.13 -393.41)"/><path class="cls-3" d="M814.8,543.61l-7.45,3.85q-.21-.53-3.07-7.14t-7.59-17H768.33q-5,11.16-7.79,17.29t-3,6.85L751.09,544q1.24-2.49,10.28-22t18.75-40.91h6.23q9.57,21.45,18.82,41.56T814.8,543.61ZM794,517.19q-2.55-5.85-5.36-12.23t-5.92-13.32l-.19,0q-2.41,5.26-5.82,12.95t-5.62,12.56l0,0h23Z" transform="translate(-449.13 -393.41)"/><path class="cls-3" d="M891.28,484.26q-.24.57-10.13,21.85t-18.89,41h-6.38q-9.92-22.14-19-41.84t-9.49-20.65l7.47-3.71q.33,1,8.65,19.95t16,35.76h.1q7.85-17.21,16.29-36.22t8.73-19.59Z" transform="translate(-449.13 -393.41)"/><path class="cls-3" d="M955.69,546.07l-6.37-.05q-5.94,0-14.7,0-6.09,0-11.14,0c-3.37,0-6.22.05-8.55.05q.11-2.77.17-12t.07-19.11q0-5.42,0-14.33t-.19-18.44q3.41,0,8.5.05t10.52,0q9.15,0,14.9,0l6.22-.05v6.66l-6-.07q-5.53-.08-13.77-.07l-7,0-5.46,0q0,5.4-.1,10.8t-.09,10.18c1.43,0,3.13,0,5.1,0s3.71,0,5.24,0q8.43,0,15.07-.07l7.06-.07v6.61l-7.9-.07q-7.53-.07-13.75-.07c-1.53,0-3.36,0-5.48,0s-3.91,0-5.34,0q0,9.06,0,14.37t.1,8.91c1.88,0,4.17.06,6.85.08l8.67,0q7.14,0,12,0l5.43-.05Z" transform="translate(-449.13 -393.41)"/><path class="cls-3" d="M1066.32,488.78l-6.42,0q-5.65-.06-17.1-.05c-.07,6.55-.11,11.52-.15,14.91s0,8,0,13.85q0,8.44.07,17.14t.12,11.58h-7.91c.07-1.92.12-5.83.17-11.75s.07-11.69.07-17.35V503.81q0-4.9-.14-15.12-10.2,0-16.55,0l-7,.07v-6.61q4.93,0,12,.05t15.06,0q11.6,0,19.38,0l8.41-.05Z" transform="translate(-449.13 -393.41)"/><path class="cls-3" d="M1143.9,546.17H1136c0-1.92.07-5.45.12-10.61s.07-11.59.07-19.28l-8.53,0-11.73,0-11.38,0-7.21,0q0,13.32.07,20.16t.12,9.73h-7.9q0-2.88.14-10.2t.1-24.77q0-5.26-.07-12.84t-.17-16.33h7.9q0,7.28-.09,14.3t-.1,13.34l6.25,0c3.79,0,7.91,0,12.39,0l12.45,0,7.76,0q0-6.33-.1-13.32T1136,482h7.9q-.09,7.23-.17,16.72t-.07,15.47q0,14.09.1,21.58C1143.82,540.8,1143.87,544.25,1143.9,546.17Z" transform="translate(-449.13 -393.41)"/><path class="cls-3" d="M1218.66,546.07l-6.37-.05q-5.94,0-14.71,0-6.07,0-11.13,0c-3.37,0-6.22.05-8.55.05q.09-2.77.16-12t.08-19.11q0-5.42-.05-14.33t-.19-18.44c2.26,0,5.1,0,8.5.05s6.9,0,10.51,0q9.15,0,14.9,0l6.23-.05v6.66l-6-.07q-5.54-.08-13.78-.07l-7,0-5.46,0q0,5.4-.09,10.8t-.1,10.18c1.44,0,3.14,0,5.1,0s3.71,0,5.25,0q8.43,0,15.06-.07l7.07-.07v6.61l-7.91-.07q-7.52-.07-13.74-.07c-1.54,0-3.36,0-5.49,0s-3.9,0-5.34,0q0,9.06,0,14.37t.09,8.91c1.89,0,4.17.06,6.85.08l8.67,0q7.14,0,12,0l5.44-.05Z" transform="translate(-449.13 -393.41)"/></g><g class="cls-2"><path class="cls-3" d="M732.52,646.86a16,16,0,0,1-2.32,8.65,18,18,0,0,1-6.26,6,29.54,29.54,0,0,1-8.25,3.19,46.25,46.25,0,0,1-10.31,1.07q-3.07,0-6.36-.19l-3.81-.24-.39-6.9c.45.07,1.7.19,3.74.36s4.46.27,7.23.27a42.58,42.58,0,0,0,6.57-.67,23.37,23.37,0,0,0,6.17-1.73,12,12,0,0,0,4.34-3.35,7.92,7.92,0,0,0,1.51-5,9.44,9.44,0,0,0-1.51-5.44,15.4,15.4,0,0,0-5-4.29c-1.5-.89-3.44-1.9-5.84-3a64.23,64.23,0,0,1-6.47-3.45,19.89,19.89,0,0,1-7-6.49,15.19,15.19,0,0,1-2.08-7.84,14.81,14.81,0,0,1,1.9-7.64,18.93,18.93,0,0,1,4.91-5.53,21.42,21.42,0,0,1,7.51-3.45,39.6,39.6,0,0,1,9.86-1.15q3,0,6,.17c2,.11,3.19.19,3.47.22l.68,6.94-3.5-.33q-3.08-.28-7.57-.29a26.79,26.79,0,0,0-5.53.6,17,17,0,0,0-5,1.84,10,10,0,0,0-3.26,3.07,8,8,0,0,0-1.34,4.6,8.14,8.14,0,0,0,1.42,4.52,15.7,15.7,0,0,0,5.29,4.48q2,1.2,5.2,2.76c2.15,1,4.27,2.16,6.34,3.37a21.5,21.5,0,0,1,7.21,6.49A14.87,14.87,0,0,1,732.52,646.86Z" transform="translate(-449.13 -393.41)"/><path class="cls-3" d="M802.25,664.82l-6.37,0q-5.94,0-14.71,0-6.07,0-11.13,0t-8.55,0q.09-2.77.17-12t.07-19.11q0-5.41-.05-14.32t-.19-18.44c2.26,0,5.1,0,8.5,0s6.91,0,10.51,0q9.15,0,14.9,0l6.23,0v6.65l-6-.07q-5.54-.07-13.77-.07l-7.05,0-5.46,0q0,5.41-.09,10.8c-.07,3.59-.1,7-.1,10.18l5.1,0,5.25,0q8.43,0,15.06-.08l7.07-.07V635l-7.91-.07q-7.51-.07-13.74-.07l-5.49,0-5.34,0q0,9,.05,14.37t.09,8.91c1.89,0,4.17.05,6.86.07l8.66,0q7.14,0,12,0l5.44,0Z" transform="translate(-449.13 -393.41)"/><path class="cls-3" d="M885.73,662.36l-7.46,3.85q-.19-.53-3.07-7.13t-7.58-17H839.26q-5.06,11.16-7.79,17.29t-3,6.85L822,662.74q1.25-2.49,10.27-22t18.76-40.92h6.22q9.59,21.45,18.83,41.56T885.73,662.36Zm-20.82-26.42q-2.53-5.85-5.35-12.22t-5.93-13.33l-.19,0q-2.41,5.27-5.81,13T842,635.94l0,0h22.95Z" transform="translate(-449.13 -393.41)"/><path class="cls-3" d="M989.59,607.54l-6.41,0q-5.65,0-17.1,0-.11,9.82-.15,14.91t0,13.85q0,8.44.08,17.14t.12,11.58h-7.91c.07-1.92.12-5.83.17-11.75s.07-11.69.07-17.35V622.57q0-4.92-.14-15.13-10.2,0-16.55,0l-7,.08v-6.61q4.93,0,12,0t15.06,0q11.6,0,19.38,0l8.4,0Z" transform="translate(-449.13 -393.41)"/><path class="cls-3" d="M1065.17,600.78q0,9.19-.1,15.21t-.09,10.47c0,3.64,0,6.74,0,9.31s0,4.8,0,6.69a26.89,26.89,0,0,1-1.65,9.79,20.1,20.1,0,0,1-5,7.4,23.93,23.93,0,0,1-8.24,5,32.66,32.66,0,0,1-11.31,1.8,33,33,0,0,1-11.3-1.78,23.62,23.62,0,0,1-8.29-5,20.1,20.1,0,0,1-5-7.4,26.67,26.67,0,0,1-1.66-9.79q0-2.84,0-6.69t0-9.31q0-4.46-.1-10.47t-.09-15.21h7.9q0,1.2-.12,8.17t-.07,18.32q0,3.45,0,7.14t0,7.57q0,8.76,5,13.29t13.6,4.52q9.3,0,13.94-4.31t4.65-13.5q0-3.88,0-7.57t0-7.14q0-11.35-.1-18.58c-.07-4.83-.1-7.46-.1-7.91Z" transform="translate(-449.13 -393.41)"/><path class="cls-3" d="M1148.15,661.09l-6,4.93q-1.05-1.1-7.46-8.32t-19.77-22.5l0-.43a24.23,24.23,0,0,0,4.84-2.09,24.91,24.91,0,0,0,5.08-3.47,15.54,15.54,0,0,0,3.09-4,13.35,13.35,0,0,0,1.32-6.43,10.52,10.52,0,0,0-1.94-6.35,11.14,11.14,0,0,0-5.34-3.9,20.38,20.38,0,0,0-5.84-1.28c-2.05-.14-3.93-.21-5.66-.21l-2.63,0-1.34,0q-.11,9.11-.12,16.06c0,4.63,0,7.91,0,9.82q0,6.57.07,17.84t.12,14.14h-7.91q0-2.88.15-11.14t.09-20.57v-8.86q0-6.47-.24-23.57l4.79-.09q4.3-.11,7.94-.1a66.45,66.45,0,0,1,8.08.48,28.16,28.16,0,0,1,7.66,2.06,17.24,17.24,0,0,1,7.51,5.91,15.39,15.39,0,0,1,2.77,9.17,16,16,0,0,1-4.18,11.32,36.56,36.56,0,0,1-7.91,6.72v.24q6.56,7.66,14.4,15.82T1148.15,661.09Z" transform="translate(-449.13 -393.41)"/><path class="cls-3" d="M1216.79,607.54l-6.42,0q-5.65,0-17.1,0-.09,9.82-.14,14.91t-.05,13.85q0,8.44.07,17.14t.12,11.58h-7.9c.06-1.92.12-5.83.17-11.75s.07-11.69.07-17.35V622.57q0-4.92-.15-15.13-10.2,0-16.54,0l-7,.08v-6.61q4.92,0,12,0t15.06,0q11.6,0,19.38,0l8.4,0Z" transform="translate(-449.13 -393.41)"/><path class="cls-3" d="M1279.38,664.82l-6.06,0q-5.47,0-14,0c-3.73,0-7.29,0-10.65,0s-6.22,0-8.55,0q.09-8.24.16-16.69t.07-16.6q0-13.6-.09-20.74c-.07-4.75-.11-8.09-.14-10h7.9q-.1,6.18-.14,14.26t0,13.26q0,12.59,0,21t0,8.9l4.75,0,5,0q8.58,0,14.93-.07l6.77-.07Z" transform="translate(-449.13 -393.41)"/><path class="cls-3" d="M1345.42,664.82l-6.37,0q-5.94,0-14.7,0-6.09,0-11.14,0t-8.55,0q.09-2.77.17-12t.07-19.11q0-5.41-.05-14.32t-.19-18.44q3.4,0,8.5,0c3.4,0,6.91,0,10.52,0q9.15,0,14.89,0l6.23,0v6.65l-6-.07q-5.54-.07-13.77-.07l-7,0-5.46,0c0,3.61,0,7.21-.1,10.8s-.09,7-.09,10.18l5.1,0,5.24,0q8.43,0,15.07-.08l7.06-.07V635l-7.9-.07q-7.53-.07-13.75-.07l-5.48,0-5.34,0q0,9,0,14.37c0,3.54.07,6.51.1,8.91,1.88,0,4.17.05,6.85.07l8.67,0q7.14,0,12,0l5.43,0Z" transform="translate(-449.13 -393.41)"/><path class="cls-3" d="M1407.73,646.86a16,16,0,0,1-2.33,8.65,18,18,0,0,1-6.26,6,29.3,29.3,0,0,1-8.25,3.19,46.25,46.25,0,0,1-10.31,1.07q-3.06,0-6.35-.19l-3.81-.24-.39-6.9c.45.07,1.69.19,3.74.36s4.45.27,7.23.27a42.47,42.47,0,0,0,6.56-.67,23.46,23.46,0,0,0,6.18-1.73,12,12,0,0,0,4.34-3.35,8,8,0,0,0,1.5-5,9.51,9.51,0,0,0-1.5-5.44,15.4,15.4,0,0,0-5-4.29c-1.5-.89-3.45-1.9-5.84-3a64.23,64.23,0,0,1-6.47-3.45,19.8,19.8,0,0,1-7-6.49,15.1,15.1,0,0,1-2.08-7.84,14.9,14.9,0,0,1,1.89-7.64,19,19,0,0,1,4.92-5.53,21.46,21.46,0,0,1,7.5-3.45,39.65,39.65,0,0,1,9.86-1.15q3,0,6,.17c2,.11,3.19.19,3.48.22l.67,6.94-3.49-.33q-3.07-.28-7.57-.29a26.89,26.89,0,0,0-5.54.6,16.9,16.9,0,0,0-5,1.84,9.92,9.92,0,0,0-3.26,3.07,8,8,0,0,0-1.34,4.6,8.2,8.2,0,0,0,1.41,4.52,15.85,15.85,0,0,0,5.3,4.48c1.3.8,3,1.72,5.19,2.76s4.27,2.16,6.35,3.37a21.59,21.59,0,0,1,7.21,6.49A14.87,14.87,0,0,1,1407.73,646.86Z" transform="translate(-449.13 -393.41)"/></g><g class="cls-2"><path class="cls-3" d="M731.55,728.52l-4.63-.06q-4,0-9.88-.05l-4.85,0-3.76,0q0,4-.07,8.64t-.07,8.19l2.43,0,3.85,0q5.79,0,10.93-.06l5.7,0v4.87l-6.52-.05c-3.89,0-7.38,0-10.46,0h-3.46l-2.47,0c0,4.17,0,8.1.05,11.81s.07,6.69.09,8.94h-5.82q.06-2.12.12-7.53t0-15.58q0-4,0-10.52t-.14-13.52q2.57,0,6.3,0t7.85,0q6.18,0,10.2,0l4.59,0Z" transform="translate(-449.13 -393.41)"/><path class="cls-3" d="M794.22,747.15a27.38,27.38,0,0,1-2,10.5,23.32,23.32,0,0,1-5.09,7.89,22.58,22.58,0,0,1-24,5.1,21.09,21.09,0,0,1-7-4.46,23.81,23.81,0,0,1-5.52-8.1,27.63,27.63,0,0,1-2.09-11,28.4,28.4,0,0,1,1.65-9.9,24.12,24.12,0,0,1,5-8,21.09,21.09,0,0,1,7.3-5.13,23.17,23.17,0,0,1,17.74-.11,21.06,21.06,0,0,1,7,4.75,23.31,23.31,0,0,1,5.24,8.31A28.87,28.87,0,0,1,794.22,747.15Zm-6,.57a27.44,27.44,0,0,0-1.53-9,18.48,18.48,0,0,0-4.69-7.43,15.84,15.84,0,0,0-4.75-3.18,14.79,14.79,0,0,0-5.88-1.13,15.27,15.27,0,0,0-5.92,1.15,15.43,15.43,0,0,0-5,3.37,19.31,19.31,0,0,0-4.4,7,25.74,25.74,0,0,0,0,17.79,19,19,0,0,0,4.54,6.81,15.52,15.52,0,0,0,4.77,3.12,14.81,14.81,0,0,0,5.9,1.19,15.2,15.2,0,0,0,5.89-1.15,16,16,0,0,0,5-3.3,19.41,19.41,0,0,0,4.35-6.48A21.82,21.82,0,0,0,788.22,747.72Z" transform="translate(-449.13 -393.41)"/><path class="cls-3" d="M854.14,723.5q0,6.78-.07,11.21t-.07,7.71c0,2.69,0,5,0,6.87s0,3.53,0,4.92a19.82,19.82,0,0,1-1.22,7.22,14.73,14.73,0,0,1-3.69,5.45,17.59,17.59,0,0,1-6.07,3.66,24.15,24.15,0,0,1-8.33,1.32,24.4,24.4,0,0,1-8.33-1.31,17.46,17.46,0,0,1-6.11-3.67,14.83,14.83,0,0,1-3.68-5.45,19.61,19.61,0,0,1-1.22-7.22c0-1.39,0-3,0-4.92s0-4.18,0-6.87q0-3.28-.07-7.71c0-3-.07-6.69-.07-11.21h5.83q0,.88-.09,6t0,13.5c0,1.7,0,3.45,0,5.26s0,3.67,0,5.58q0,6.46,3.71,9.79t10,3.34q6.84,0,10.27-3.18t3.42-9.95c0-1.91,0-3.77,0-5.58s0-3.56,0-5.26q0-8.35-.07-13.69c0-3.55-.07-5.5-.07-5.83Z" transform="translate(-449.13 -393.41)"/><path class="cls-3" d="M919.5,723.5q-.07,5.55-.13,12.68t0,10.27q0,10,.07,15.93t.07,6.3l-4.69,2.3q-10.66-14.4-19.93-26t-10.71-13.4l-.07,0q0,9.47.13,23.24t.15,15.89h-5.5c0-.58.06-2.68.1-6.28s.08-8.61.08-15c0-2.57,0-6,0-10.22s-.07-8.75-.14-13.5l5.36-2.54L895,736.91q10.18,12.9,19.18,24l.07,0q0-5.43-.14-18.29T914,723.5Z" transform="translate(-449.13 -393.41)"/><path class="cls-3" d="M984.08,747.4A19.61,19.61,0,0,1,981,758.31a23.65,23.65,0,0,1-7.92,7.55,35.16,35.16,0,0,1-9.43,3.81A48.15,48.15,0,0,1,952,771c-1.65,0-3.26,0-4.83-.07l-2.61-.07q0-.18.09-8.14t.08-15.09q0-3.78,0-9.7t-.16-14.41l3.22,0,3.09,0a57.93,57.93,0,0,1,13,1.31,32.18,32.18,0,0,1,10.1,4.13,21.69,21.69,0,0,1,7.65,7.89A21.93,21.93,0,0,1,984.08,747.4Zm-6,0a17.5,17.5,0,0,0-2-8.32,17,17,0,0,0-6.24-6.43,26.2,26.2,0,0,0-8.83-3.49,44.27,44.27,0,0,0-8.79-1h-1.83q-.07,5.58-.09,9.25c0,2.44,0,4.4,0,5.86q0,1.54,0,7.25t0,15.79h1.8a40.87,40.87,0,0,0,9.2-1.07,27.12,27.12,0,0,0,7.79-3,19.9,19.9,0,0,0,6.47-6.09A15.48,15.48,0,0,0,978.08,747.36Z" transform="translate(-449.13 -393.41)"/><path class="cls-3" d="M1045.27,768.88l-5.49,2.84c-.1-.26-.85-2-2.27-5.26s-3.27-7.42-5.58-12.53H1011q-3.72,8.22-5.74,12.74c-1.35,3-2.09,4.7-2.24,5.05l-4.72-2.56q.92-1.83,7.57-16.18t13.82-30.15h4.58q7.07,15.81,13.87,30.63T1045.27,768.88Zm-15.34-19.47q-1.86-4.3-4-9t-4.36-9.82l-.14,0q-1.77,3.87-4.28,9.54t-4.15,9.25v0H1030Z" transform="translate(-449.13 -393.41)"/><path class="cls-3" d="M1095.13,728.48l-4.73,0q-4.17,0-12.6,0c0,4.83-.08,8.49-.11,11s0,5.9,0,10.21q0,6.21,0,12.62t.09,8.53H1072c0-1.41.09-4.29.12-8.65s.05-8.62.05-12.79v-9.76c0-2.42,0-6.13-.1-11.15q-7.52,0-12.2,0l-5.13.05v-4.87q3.63,0,8.84,0t11.1,0q8.53,0,14.28,0l6.19,0Z" transform="translate(-449.13 -393.41)"/><path class="cls-3" d="M1118.2,770.76h-5.82c0-1.41.06-3.92.11-7.55s.07-8.82.07-15.6c0-2.68,0-6.2,0-10.55s-.07-8.87-.14-13.56h5.82q-.06,5.06-.12,11.74c0,4.46,0,8.1,0,10.92q0,10.74.07,16.61C1118.14,766.69,1118.18,769.35,1118.2,770.76Z" transform="translate(-449.13 -393.41)"/><path class="cls-3" d="M1185.15,747.15a27.57,27.57,0,0,1-2,10.5,23.34,23.34,0,0,1-5.1,7.89,21.37,21.37,0,0,1-15.8,6.6,22.7,22.7,0,0,1-8.25-1.5,21.15,21.15,0,0,1-7-4.46,23.81,23.81,0,0,1-5.52-8.1,27.63,27.63,0,0,1-2.1-11,28.17,28.17,0,0,1,1.66-9.9,23.93,23.93,0,0,1,5-8,21.28,21.28,0,0,1,7.3-5.13,23.17,23.17,0,0,1,17.74-.11,21.21,21.21,0,0,1,7,4.75,23.45,23.45,0,0,1,5.24,8.31A29.1,29.1,0,0,1,1185.15,747.15Zm-6,.57a27.45,27.45,0,0,0-1.54-9,18.36,18.36,0,0,0-4.68-7.43,16,16,0,0,0-4.75-3.18,14.87,14.87,0,0,0-5.89-1.13,15.19,15.19,0,0,0-5.91,1.15,15.58,15.58,0,0,0-5,3.37,19.45,19.45,0,0,0-4.4,7,25.67,25.67,0,0,0,0,17.79,18.9,18.9,0,0,0,4.54,6.81,15.4,15.4,0,0,0,4.77,3.12,14.78,14.78,0,0,0,5.9,1.19,15.15,15.15,0,0,0,5.88-1.15,16,16,0,0,0,5-3.3,19.54,19.54,0,0,0,4.34-6.48A21.82,21.82,0,0,0,1179.15,747.72Z" transform="translate(-449.13 -393.41)"/><path class="cls-3" d="M1247.22,723.5q-.08,5.55-.12,12.68t-.06,10.27q0,10,.08,15.93c0,3.94.07,6,.07,6.3l-4.7,2.3q-10.66-14.4-19.92-26l-10.71-13.4-.07,0q0,9.47.12,23.24t.16,15.89h-5.51c0-.58.06-2.68.11-6.28s.07-8.61.07-15c0-2.57,0-6,0-10.22s-.07-8.75-.14-13.5l5.37-2.54,10.81,13.72q10.18,12.9,19.19,24l.07,0q0-5.43-.14-18.29t-.15-19.07Z" transform="translate(-449.13 -393.41)"/></g><g class="cls-2"><path class="cls-3" d="M723.78,826.27a8,8,0,0,1-1.16,4.33,9,9,0,0,1-3.13,3,14.51,14.51,0,0,1-4.13,1.6,22.81,22.81,0,0,1-5.15.54c-1,0-2.09,0-3.18-.1l-1.91-.12-.19-3.45,1.87.18c1,.09,2.23.13,3.61.13a21.3,21.3,0,0,0,3.29-.33,11.57,11.57,0,0,0,3.09-.87,6,6,0,0,0,2.16-1.67,4,4,0,0,0,.76-2.49,4.68,4.68,0,0,0-.76-2.72,7.51,7.51,0,0,0-2.5-2.14,32.72,32.72,0,0,0-2.92-1.51,32.21,32.21,0,0,1-3.24-1.73,9.91,9.91,0,0,1-3.48-3.24,7.61,7.61,0,0,1-1-3.92,7.34,7.34,0,0,1,1-3.82,9.54,9.54,0,0,1,2.45-2.77,10.77,10.77,0,0,1,3.76-1.72,19.81,19.81,0,0,1,4.93-.57c1,0,2,0,3,.08s1.59.09,1.73.11l.34,3.47-1.75-.17c-1-.09-2.28-.14-3.78-.14a13.41,13.41,0,0,0-2.77.3,8.59,8.59,0,0,0-2.5.92,5,5,0,0,0-1.63,1.53,4,4,0,0,0-.67,2.3,4.1,4.1,0,0,0,.71,2.26,7.82,7.82,0,0,0,2.64,2.24c.66.4,1.52.86,2.6,1.38s2.14,1.08,3.17,1.69a10.67,10.67,0,0,1,3.61,3.25A7.36,7.36,0,0,1,723.78,826.27Z" transform="translate(-449.13 -393.41)"/><path class="cls-3" d="M742.26,835.3h-4c0-.95,0-2.66.07-5.12s0-6,0-10.59c0-1.82,0-4.2,0-7.16s0-6-.1-9.2h4c0,2.29-.06,4.94-.08,8s0,5.49,0,7.41q0,7.27.05,11.27C742.22,832.54,742.25,834.35,742.26,835.3Z" transform="translate(-449.13 -393.41)"/><path class="cls-3" d="M786.9,803.23q0,3.76-.09,8.6t0,7c0,4.54,0,8.14.05,10.82s0,4.1,0,4.27l-3.18,1.56q-7.23-9.78-13.52-17.64l-7.27-9.09,0,0q0,6.42.09,15.77c0,6.23.09,9.83.1,10.78h-3.73c0-.39,0-1.82.07-4.26s0-5.84,0-10.2q0-2.61,0-6.94c0-2.88,0-5.93-.09-9.16L763,803q.42.56,7.34,9.31t13,16.27l.05,0q0-3.69-.09-12.41t-.1-12.94Z" transform="translate(-449.13 -393.41)"/><path class="cls-3" d="M825.14,832.36c0,.14-.06.55-.13,1.21s-.14,1.38-.21,2.17H824a33.78,33.78,0,0,1-10.4-1.48A19.07,19.07,0,0,1,806.1,830a14.19,14.19,0,0,1-3.22-4.65,15.24,15.24,0,0,1-1.19-6.18,13.48,13.48,0,0,1,1.18-5.69,15.52,15.52,0,0,1,3.06-4.49,19.1,19.1,0,0,1,7.4-4.4,29.74,29.74,0,0,1,9.94-1.63h1.08c0,.28,0,.74.09,1.37s.11,1.32.17,2h-.81a30.82,30.82,0,0,0-6.21.66,18.78,18.78,0,0,0-5.54,2,12.57,12.57,0,0,0-4.66,4.42,11.06,11.06,0,0,0-1.63,5.8,11.88,11.88,0,0,0,1.47,5.88,11.61,11.61,0,0,0,4.62,4.45,19.77,19.77,0,0,0,5.8,2.15,30.69,30.69,0,0,0,6.36.67h.46Z" transform="translate(-449.13 -393.41)"/><path class="cls-3" d="M858.42,835.26l-3.18,0-7.36,0-5.56,0-4.28,0c0-.93.06-2.93.08-6s0-6.26,0-9.55c0-1.81,0-4.19,0-7.16s0-6-.1-9.22c1.13,0,2.55,0,4.25,0s3.45,0,5.26,0c3.05,0,5.53,0,7.45,0l3.11,0v3.33l-3,0c-1.85,0-4.14,0-6.89,0l-3.52,0H842c0,1.8,0,3.6-.05,5.4s0,3.49,0,5.09h5.18q4.22,0,7.53,0l3.53,0v3.3l-4,0c-2.51,0-4.8,0-6.87,0l-2.75,0h-2.67c0,3,0,5.41,0,7.18s0,3.26,0,4.46c.95,0,2.09,0,3.43,0h4.33c2.38,0,4.38,0,6,0l2.72,0Z" transform="translate(-449.13 -393.41)"/><path class="cls-3" d="M899.51,835.3h-3.74c0-.51.05-1.94.1-4.31s.07-5.64.07-9.84c0-.73,0-1.8,0-3.19s0-2.47,0-3.25l-.07,0c-.7.4-1.73,1-3.09,1.87l-4.35,2.71L887,817.15l6.1-4.25,3.68-2.55,2.73,1.89q-.06,3.48-.07,7.11t0,4.29q0,2.82,0,6.86T899.51,835.3Z" transform="translate(-449.13 -393.41)"/><path class="cls-3" d="M935.69,821a12.93,12.93,0,0,1-1,5.22,23.28,23.28,0,0,1-3.17,5.08q-2.43,3.09-6.44,7.31c-2.67,2.82-4.37,4.6-5.08,5.33l-2.83-2.29c1.76-1.73,3.38-3.34,4.88-4.83s2.87-2.87,4.15-4.13l0-.05a24.58,24.58,0,0,1-4.41-1,16.31,16.31,0,0,1-4.12-2,11,11,0,0,1-3.23-3.39,9.14,9.14,0,0,1-1.27-4.94,9.72,9.72,0,0,1,.86-4.19,12.11,12.11,0,0,1,2.27-3.31,10.88,10.88,0,0,1,3.66-2.44,11.93,11.93,0,0,1,4.57-.89,13.46,13.46,0,0,1,4.58.75,9.83,9.83,0,0,1,3.68,2.3,10.64,10.64,0,0,1,2.13,3.12A10.81,10.81,0,0,1,935.69,821Zm-3.88.17a8.49,8.49,0,0,0-.61-3.21,7.8,7.8,0,0,0-1.64-2.52,6.66,6.66,0,0,0-2.29-1.46,7.84,7.84,0,0,0-2.86-.52,7.47,7.47,0,0,0-5.29,2.1,7,7,0,0,0-1.55,2.46,8.16,8.16,0,0,0-.56,3,7,7,0,0,0,1.23,4.05,9.49,9.49,0,0,0,3.58,3,15.42,15.42,0,0,0,3,1.16,20.79,20.79,0,0,0,3.35.61,15.74,15.74,0,0,0,2.66-4A11.07,11.07,0,0,0,931.81,821.2Z" transform="translate(-449.13 -393.41)"/><path class="cls-3" d="M969.76,826.92a8,8,0,0,1-3.21,6.55,12,12,0,0,1-7.78,2.58,12.5,12.5,0,0,1-7.9-2.43,7.75,7.75,0,0,1-3.14-6.46,7.2,7.2,0,0,1,1.44-4.31,18.51,18.51,0,0,1,4.23-4v-.05A10,10,0,0,1,950,816a7,7,0,0,1-1.22-4.28,7.12,7.12,0,0,1,3-5.88,11.15,11.15,0,0,1,7-2.32,11.53,11.53,0,0,1,7.33,2.22,7,7,0,0,1,2.82,5.78,7.57,7.57,0,0,1-1.41,4.39,13.74,13.74,0,0,1-3.38,3.42v.05a11.73,11.73,0,0,1,4.09,3A6.84,6.84,0,0,1,969.76,826.92Zm-3.88.36a4.75,4.75,0,0,0-.87-2.78,7.39,7.39,0,0,0-2.72-2.2,29.53,29.53,0,0,0-2.75-1.19c-1.15-.44-2.23-.81-3.24-1.13a12.34,12.34,0,0,0-3.34,3.09,6.62,6.62,0,0,0-1.35,4,5.22,5.22,0,0,0,2.07,4.19,7.59,7.59,0,0,0,5,1.7,8.46,8.46,0,0,0,5.27-1.48A5,5,0,0,0,965.88,827.28ZM965,812.19a5.23,5.23,0,0,0-1.73-4.17,6.66,6.66,0,0,0-4.52-1.5,6.76,6.76,0,0,0-4.41,1.4,4.61,4.61,0,0,0-1.74,3.79,3.83,3.83,0,0,0,.9,2.6,7.58,7.58,0,0,0,2.26,1.76,21.27,21.27,0,0,0,2.48,1.1c1,.39,2,.72,2.89,1a11,11,0,0,0,2.82-2.72A5.58,5.58,0,0,0,965,812.19Z" transform="translate(-449.13 -393.41)"/><path class="cls-3" d="M1001.61,814q-5.94,11-10.37,19.37c-3,5.56-4.62,8.7-5,9.42l-3.08-1.46q5.3-9.51,9.43-17.48t4.68-9.13l0,0h-4.5q-4.41,0-8.53.08l-4.38.07v-3.35H1000Z" transform="translate(-449.13 -393.41)"/></g></g></svg>