<svg xmlns="http://www.w3.org/2000/svg" viewBox="0 0 595.74 129.76"><defs><style>.cls-1{fill:#468189;fill-rule:evenodd;}.cls-2{isolation:isolate;}.cls-3{fill:#1c1c1c;}</style></defs><title>logov2dk</title><g id="Layer_5" data-name="Layer 5"><path id="Path" class="cls-1" d="M908.78,486.83c76.64-57.24,80.32,35,182.27,20.08C975.66,563.67,955.86,468,908.78,486.83Z" transform="translate(-641.08 -467.9)"/><path class="cls-1" d="M736.65,555.15c78.08-55.26,79.4,37,181.69,24.75C801.53,633.68,788.67,547.43,736.65,555.15Z" transform="translate(-641.08 -467.9)"/><path class="cls-1" d="M734.08,503c87.22-126.11,214.81,143.91,407,6.47C968.27,703.53,806.76,457.76,734.08,503Z" transform="translate(-641.08 -467.9)"/><g class="cls-2"><path class="cls-3" d="M658.39,551a7.35,7.35,0,0,1-1.07,4,8.23,8.23,0,0,1-2.87,2.75,13.37,13.37,0,0,1-3.79,1.47,21,21,0,0,1-4.73.49c-.94,0-1.92,0-2.92-.09s-1.59-.09-1.75-.11l-.18-3.16c.21,0,.78.08,1.72.16s2,.12,3.32.12a19.52,19.52,0,0,0,3-.3,10.61,10.61,0,0,0,2.84-.8,5.4,5.4,0,0,0,2-1.54,3.64,3.64,0,0,0,.69-2.28,4.35,4.35,0,0,0-.69-2.5,7,7,0,0,0-2.3-2c-.69-.41-1.58-.87-2.68-1.38a29,29,0,0,1-3-1.59,9,9,0,0,1-3.2-3,7.35,7.35,0,0,1-.09-7.1,8.57,8.57,0,0,1,2.26-2.54,9.84,9.84,0,0,1,3.44-1.58,17.71,17.71,0,0,1,4.53-.53c.91,0,1.83,0,2.76.08l1.6.09.31,3.19-1.61-.15c-.93-.09-2.09-.13-3.47-.13a12.55,12.55,0,0,0-2.54.27,8,8,0,0,0-2.3.85,4.64,4.64,0,0,0-1.49,1.41,3.64,3.64,0,0,0-.62,2.11,3.8,3.8,0,0,0,.65,2.08,7.27,7.27,0,0,0,2.43,2.05c.6.37,1.4.79,2.39,1.27s2,1,2.91,1.55a9.79,9.79,0,0,1,3.31,3A6.81,6.81,0,0,1,658.39,551Z" transform="translate(-641.08 -467.9)"/><path class="cls-3" d="M696.17,558.1l-3.43,1.77c-.06-.16-.53-1.25-1.41-3.28s-2-4.62-3.48-7.8h-13c-1.54,3.41-2.74,6.06-3.58,7.94s-1.3,2.92-1.39,3.14l-2.94-1.59q.57-1.15,4.71-10.08t8.61-18.79h2.86q4.41,9.86,8.65,19.08T696.17,558.1ZM686.61,546q-1.17-2.69-2.46-5.61t-2.72-6.12l-.09,0q-1.1,2.41-2.67,5.94c-1,2.35-1.9,4.28-2.58,5.77v0h10.54Z" transform="translate(-641.08 -467.9)"/><path class="cls-3" d="M731.28,530.85q-.1.27-4.65,10T718,559.72H715q-4.56-10.17-8.71-19.21L702,531l3.42-1.71q.17.45,4,9.16t7.36,16.42h0q3.6-7.89,7.48-16.63t4-9Z" transform="translate(-641.08 -467.9)"/><path class="cls-3" d="M760.86,559.23l-2.93,0-6.75,0-5.11,0c-1.55,0-2.86,0-3.93,0,0-.85.05-2.69.08-5.52s0-5.75,0-8.77q0-2.49,0-6.58t-.09-8.47l3.9,0,4.83,0,6.84,0,2.86,0V533l-2.76,0q-2.53,0-6.32,0h-5.74c0,1.65,0,3.31,0,5s0,3.2,0,4.67h4.75c2.58,0,4.88,0,6.92,0l3.24,0v3l-3.63,0c-2.3,0-4.41,0-6.31,0l-2.52,0h-2.45q0,4.15,0,6.59c0,1.63,0,3,0,4.1l3.15,0h4l5.51,0,2.5,0Z" transform="translate(-641.08 -467.9)"/><path class="cls-3" d="M811.64,532.93l-2.94,0c-1.73,0-4.35,0-7.85,0,0,3-.06,5.29-.07,6.84s0,3.68,0,6.36,0,5.21,0,7.87,0,4.44.06,5.32h-3.63c0-.88,0-2.68.07-5.4s0-5.37,0-8v-6.09c0-1.5,0-3.82-.07-6.94-3.12,0-5.65,0-7.6,0l-3.2,0v-3l5.51,0,6.92,0,8.9,0,3.85,0Z" transform="translate(-641.08 -467.9)"/><path class="cls-3" d="M847.27,559.28h-3.63c0-.88,0-2.51.05-4.87s0-5.32,0-8.86H825.89q0,6.12,0,9.26t.06,4.47h-3.63c0-.88,0-2.45.07-4.69s0-6,0-11.37c0-1.61,0-3.58,0-5.89s0-4.82-.08-7.5H826q0,3.34-.05,6.56t0,6.13h17.84q0-2.91-.05-6.12t0-6.57h3.63q0,3.31-.08,7.67t0,7.11q0,6.46,0,9.9C847.23,556.81,847.25,558.4,847.27,559.28Z" transform="translate(-641.08 -467.9)"/><path class="cls-3" d="M881.59,559.23l-2.92,0-6.76,0-5.11,0c-1.55,0-2.86,0-3.93,0,0-.85.06-2.69.08-5.52s0-5.75,0-8.77c0-1.66,0-3.85,0-6.58s0-5.55-.09-8.47l3.91,0,4.83,0,6.83,0,2.86,0V533l-2.76,0q-2.53,0-6.32,0h-5.74c0,1.65,0,3.31,0,5s-.05,3.2-.05,4.67h4.75q3.87,0,6.92,0l3.24,0v3l-3.63,0c-2.3,0-4.4,0-6.31,0l-2.52,0h-2.45q0,4.15,0,6.59c0,1.63,0,3,0,4.1l3.14,0h4l5.51,0,2.5,0Z" transform="translate(-641.08 -467.9)"/><path class="cls-3" d="M926.81,551a7.34,7.34,0,0,1-1.06,4,8.26,8.26,0,0,1-2.88,2.75,13.25,13.25,0,0,1-3.79,1.47,21,21,0,0,1-4.73.49c-.94,0-1.91,0-2.92-.09s-1.59-.09-1.75-.11l-.17-3.16c.2,0,.77.08,1.71.16s2,.12,3.32.12a19.75,19.75,0,0,0,3-.3,10.52,10.52,0,0,0,2.83-.8,5.32,5.32,0,0,0,2-1.54,3.64,3.64,0,0,0,.7-2.28,4.36,4.36,0,0,0-.7-2.5,6.93,6.93,0,0,0-2.3-2,29,29,0,0,0-2.68-1.38,29,29,0,0,1-3-1.59,9,9,0,0,1-3.2-3,7,7,0,0,1-1-3.59,6.82,6.82,0,0,1,.87-3.51,8.67,8.67,0,0,1,2.25-2.54,9.81,9.81,0,0,1,3.45-1.58,17.71,17.71,0,0,1,4.53-.53c.91,0,1.83,0,2.76.08l1.6.09.3,3.19-1.6-.15c-.94-.09-2.1-.13-3.48-.13a12.62,12.62,0,0,0-2.54.27,8,8,0,0,0-2.29.85,4.57,4.57,0,0,0-1.5,1.41,3.64,3.64,0,0,0-.62,2.11,3.8,3.8,0,0,0,.65,2.08,7.48,7.48,0,0,0,2.43,2.05c.61.37,1.4.79,2.39,1.27s2,1,2.91,1.55a9.79,9.79,0,0,1,3.31,3A6.81,6.81,0,0,1,926.81,551Z" transform="translate(-641.08 -467.9)"/><path class="cls-3" d="M958.83,559.23l-2.92,0-6.76,0-5.11,0c-1.55,0-2.86,0-3.93,0,0-.85.06-2.69.08-5.52s0-5.75,0-8.77c0-1.66,0-3.85,0-6.58s0-5.55-.09-8.47l3.91,0,4.83,0,6.83,0,2.86,0V533l-2.76,0q-2.53,0-6.32,0h-5.74c0,1.65,0,3.31,0,5s0,3.2,0,4.67h4.75q3.87,0,6.92,0l3.24,0v3l-3.62,0c-2.31,0-4.41,0-6.32,0l-2.52,0h-2.45q0,4.15,0,6.59c0,1.63,0,3,0,4.1l3.14,0h4l5.51,0,2.5,0Z" transform="translate(-641.08 -467.9)"/><path class="cls-3" d="M997.16,558.1l-3.43,1.77c-.06-.16-.53-1.25-1.41-3.28s-2-4.62-3.48-7.8h-13q-2.33,5.12-3.58,7.94c-.84,1.87-1.3,2.92-1.39,3.14l-2.94-1.59q.57-1.15,4.71-10.08t8.61-18.79h2.86q4.39,9.86,8.65,19.08T997.16,558.1ZM987.6,546q-1.17-2.69-2.46-5.61t-2.72-6.12l-.09,0c-.74,1.61-1.62,3.59-2.67,5.94s-1.9,4.28-2.58,5.77v0h10.54Z" transform="translate(-641.08 -467.9)"/><path class="cls-3" d="M1044.84,532.93l-2.94,0c-1.73,0-4.35,0-7.85,0,0,3,0,5.29-.07,6.84s0,3.68,0,6.36,0,5.21,0,7.87,0,4.44.06,5.32h-3.63c0-.88,0-2.68.07-5.4s0-5.37,0-8v-6.09c0-1.5,0-3.82-.07-6.94-3.12,0-5.65,0-7.6,0l-3.2,0v-3l5.51,0,6.92,0,8.9,0,3.85,0Z" transform="translate(-641.08 -467.9)"/><path class="cls-3" d="M1079.54,529.83q0,4.21,0,7c0,1.84,0,3.44,0,4.81,0,1.67,0,3.09,0,4.27s0,2.21,0,3.07a12.48,12.48,0,0,1-.76,4.5,9.36,9.36,0,0,1-2.3,3.4,11,11,0,0,1-3.78,2.27,16.74,16.74,0,0,1-10.38,0,10.81,10.81,0,0,1-3.81-2.28,9.24,9.24,0,0,1-2.3-3.4,12.48,12.48,0,0,1-.76-4.5c0-.86,0-1.89,0-3.07s0-2.6,0-4.27c0-1.37,0-3-.05-4.81s0-4.17,0-7H1059q0,.55-.06,3.75c0,2.13,0,4.94,0,8.41,0,1.06,0,2.15,0,3.28s0,2.28,0,3.47a7.78,7.78,0,0,0,2.31,6.1,9,9,0,0,0,6.25,2.08q4.26,0,6.4-2c1.42-1.32,2.13-3.38,2.13-6.2,0-1.19,0-2.34,0-3.47s0-2.22,0-3.28c0-3.47,0-6.32,0-8.53s0-3.43,0-3.63Z" transform="translate(-641.08 -467.9)"/><path class="cls-3" d="M1117.64,557.52l-2.75,2.26c-.32-.34-1.47-1.61-3.43-3.82s-5-5.65-9.08-10.33l0-.2a10.46,10.46,0,0,0,2.23-1,11.57,11.57,0,0,0,2.33-1.59,7.49,7.49,0,0,0,1.42-1.85,6.17,6.17,0,0,0,.6-2.95,4.8,4.8,0,0,0-.89-2.92,5.12,5.12,0,0,0-2.45-1.79,9.23,9.23,0,0,0-2.68-.58c-.94-.07-1.81-.1-2.6-.1h-1.82q0,4.18-.06,7.37c0,2.13,0,3.63,0,4.52,0,2,0,4.73,0,8.18s0,5.62.06,6.5h-3.63c0-.88,0-2.59.07-5.12s0-5.67,0-9.44v-4.07q0-3-.11-10.82l2.2,0c1.31,0,2.53,0,3.64,0a29.83,29.83,0,0,1,3.71.22,12.85,12.85,0,0,1,3.52.95,7.91,7.91,0,0,1,3.45,2.71,7.06,7.06,0,0,1,1.27,4.21,7.38,7.38,0,0,1-1.92,5.2,16.71,16.71,0,0,1-3.63,3.08v.11q3,3.53,6.61,7.27C1116.18,556,1117.46,557.33,1117.64,557.52Z" transform="translate(-641.08 -467.9)"/><path class="cls-3" d="M1149.16,532.93l-3,0c-1.73,0-4.35,0-7.85,0,0,3,0,5.29-.07,6.84s0,3.68,0,6.36,0,5.21,0,7.87,0,4.44.06,5.32h-3.63c0-.88.06-2.68.08-5.4s0-5.37,0-8v-6.09c0-1.5,0-3.82-.07-6.94-3.12,0-5.65,0-7.59,0l-3.2,0v-3l5.51,0,6.91,0,8.9,0,3.86,0Z" transform="translate(-641.08 -467.9)"/><path class="cls-3" d="M1177.89,559.23l-2.78,0-6.43,0-4.89,0c-1.55,0-2.86,0-3.93,0q0-3.78.08-7.66t0-7.62c0-4.17,0-7.34,0-9.53s0-3.71-.07-4.59h3.63q0,2.83-.07,6.55t0,6.08c0,3.86,0,7.07,0,9.65s0,3.94,0,4.09h4.48q3.94,0,6.85,0l3.11,0Z" transform="translate(-641.08 -467.9)"/><path class="cls-3" d="M1208.22,559.23l-2.93,0-6.75,0-5.11,0c-1.55,0-2.86,0-3.93,0,0-.85,0-2.69.08-5.52s0-5.75,0-8.77q0-2.49,0-6.58t-.09-8.47l3.9,0,4.83,0,6.84,0,2.86,0V533l-2.76,0q-2.54,0-6.32,0h-5.74c0,1.65,0,3.31,0,5s0,3.2,0,4.67h4.75q3.87,0,6.92,0l3.24,0v3l-3.63,0c-2.3,0-4.41,0-6.31,0l-2.52,0H1193q0,4.15,0,6.59c0,1.63,0,3,0,4.1l3.15,0h4l5.51,0,2.5,0Z" transform="translate(-641.08 -467.9)"/><path class="cls-3" d="M1236.82,551a7.26,7.26,0,0,1-1.07,4,8.23,8.23,0,0,1-2.87,2.75,13.25,13.25,0,0,1-3.79,1.47,21,21,0,0,1-4.73.49c-.94,0-1.91,0-2.92-.09s-1.59-.09-1.75-.11l-.18-3.16c.21,0,.78.08,1.72.16s2,.12,3.32.12a19.52,19.52,0,0,0,3-.3,10.61,10.61,0,0,0,2.84-.8,5.4,5.4,0,0,0,2-1.54,3.64,3.64,0,0,0,.69-2.28,4.35,4.35,0,0,0-.69-2.5,7,7,0,0,0-2.3-2c-.69-.41-1.58-.87-2.68-1.38a29,29,0,0,1-3-1.59,9,9,0,0,1-3.2-3,7.35,7.35,0,0,1-.09-7.1,8.71,8.71,0,0,1,2.26-2.54,9.81,9.81,0,0,1,3.45-1.58,17.58,17.58,0,0,1,4.52-.53c.91,0,1.83,0,2.77.08l1.59.09.31,3.19-1.6-.15c-.94-.09-2.1-.13-3.48-.13a12.55,12.55,0,0,0-2.54.27,8,8,0,0,0-2.3.85,4.64,4.64,0,0,0-1.49,1.41,3.64,3.64,0,0,0-.62,2.11,3.8,3.8,0,0,0,.65,2.08,7.27,7.27,0,0,0,2.43,2.05c.6.37,1.4.79,2.39,1.27s2,1,2.91,1.55a9.79,9.79,0,0,1,3.31,3A6.81,6.81,0,0,1,1236.82,551Z" transform="translate(-641.08 -467.9)"/></g></g></svg>